<svg width="20" height="20" viewBox="0 0 20 20" fill="none" xmlns="http://www.w3.org/2000/svg">
<path d="M9.97583 19.9516C7.28098 19.9516 6.92752 19.9401 5.86392 19.8915C4.90118 19.8476 4.15421 19.7047 3.44226 19.4279C2.74481 19.1569 2.19955 18.8021 1.67465 18.277C1.14954 17.7518 0.794708 17.2068 0.523987 16.5094C0.246735 15.7974 0.10379 15.0504 0.0601501 14.0877C0.0115356 13.0239 0 12.6704 0 9.97558C0 7.28074 0.0115356 6.92704 0.0601501 5.86345C0.10379 4.90049 0.246735 4.15373 0.523987 3.4418C0.794708 2.74412 1.14975 2.19932 1.67465 1.67442C2.19955 1.14906 2.74481 0.794231 3.44226 0.523525C4.15421 0.246716 4.90097 0.103558 5.86392 0.0596848C6.9248 0.0108376 7.27805 -0.000244141 9.97583 -0.000244141C12.6736 -0.000244141 13.0269 0.0108376 14.0882 0.0596848C15.0509 0.103558 15.7975 0.246716 16.5098 0.523525C17.2071 0.794231 17.7523 1.14952 18.277 1.67442C18.8021 2.19932 19.1572 2.74457 19.4283 3.4418C19.7049 4.15418 19.8478 4.90094 19.8922 5.86345C19.9408 6.92772 19.9516 7.28142 19.9516 9.97558C19.9516 12.6697 19.9408 13.0234 19.8922 14.0877C19.8478 15.05 19.7049 15.797 19.4283 16.5094C19.1572 17.2068 18.8021 17.7518 18.277 18.277C17.7523 18.8019 17.2071 19.1569 16.5098 19.4279C15.7975 19.7047 15.0509 19.8476 14.0882 19.8915C13.0244 19.9401 12.6709 19.9516 9.97583 19.9516ZM9.97583 1.80197C7.31128 1.80197 6.99603 1.81237 5.94623 1.86054C4.974 1.90487 4.44614 2.06725 4.09515 2.20361C3.62997 2.38454 3.29776 2.60051 2.94949 2.94902C2.60074 3.29752 2.38455 3.62973 2.20407 4.0947C2.06747 4.44615 1.90488 4.97421 1.86057 5.94554C1.81259 6.99557 1.80264 7.31083 1.80264 9.97558C1.80264 12.6406 1.81259 12.9558 1.86057 14.0054C1.90488 14.977 2.06747 15.505 2.20407 15.8565C2.38455 16.3217 2.60074 16.6537 2.94949 17.0024C3.29819 17.3511 3.62997 17.5669 4.09515 17.7476C4.44614 17.8842 4.97379 18.0465 5.94623 18.0908C6.99582 18.1388 7.31061 18.149 9.97583 18.149C12.641 18.149 12.9563 18.1388 14.0059 18.0908C14.9781 18.0465 15.5057 17.8842 15.8569 17.7476C16.3221 17.5669 16.6537 17.3511 17.0026 17.0024C17.3511 16.6537 17.5671 16.3217 17.7482 15.8565C17.8846 15.5052 18.047 14.9774 18.0913 14.0054C18.139 12.9527 18.1497 12.637 18.1497 9.97558C18.1497 7.31421 18.139 6.99873 18.0913 5.94554C18.047 4.97376 17.8846 4.44615 17.7482 4.0947C17.5671 3.62928 17.3511 3.29752 17.0026 2.94902C16.6537 2.60051 16.3221 2.38454 15.8569 2.20361C15.5055 2.06725 14.9776 1.90487 14.0059 1.86054C12.9561 1.81237 12.641 1.80197 9.97583 1.80197Z" fill="white"/>
<path d="M9.97589 4.90552C7.17612 4.90552 4.90576 7.17542 4.90576 9.97587C4.90576 12.7761 7.17612 15.046 9.97589 15.046C12.7763 15.046 15.0462 12.7761 15.0462 9.97587C15.0462 7.17542 12.7763 4.90552 9.97589 4.90552ZM9.97589 13.2671C8.15829 13.2671 6.68469 11.7935 6.68469 9.97587C6.68469 8.15828 8.15829 6.68466 9.97589 6.68466C11.7935 6.68466 13.2671 8.15828 13.2671 9.97587C13.2671 11.7935 11.7935 13.2671 9.97589 13.2671Z" fill="white"/>
<path d="M16.4962 4.65188C16.4962 5.31293 15.9604 5.84868 15.2991 5.84868C14.6383 5.84868 14.1025 5.31293 14.1025 4.65188C14.1025 3.99106 14.6383 3.45508 15.2991 3.45508C15.9604 3.45508 16.4962 3.99106 16.4962 4.65188Z" fill="white"/>
</svg>
