<svg width="19" height="19" viewBox="0 0 19 19" fill="none" xmlns="http://www.w3.org/2000/svg">
<rect x="0.361816" y="6.08105" width="3.76454" height="12.1614" fill="white"/>
<path d="M2.22583 4.48798C3.45538 4.48798 4.45209 3.48273 4.45209 2.24319C4.45209 1.00433 3.45538 -0.000244141 2.22583 -0.000244141C0.996216 -0.000244141 0 1.00433 0 2.24319C0 3.48273 0.996216 4.48798 2.22583 4.48798Z" fill="white"/>
<path d="M10.1442 11.8583C10.1442 10.1484 10.931 9.13004 12.4379 9.13004C13.8221 9.13004 14.4872 10.1075 14.4872 11.8583V18.2424H18.2339V10.5421C18.2339 7.2844 16.3876 5.70947 13.8092 5.70947C11.2297 5.70947 10.1442 7.71907 10.1442 7.71907V6.08081H6.5332V18.2424H10.1442V11.8583Z" fill="white"/>
</svg>
