<svg width="58" height="58" viewBox="0 0 58 58" fill="none" xmlns="http://www.w3.org/2000/svg">
<path fill-rule="evenodd" clip-rule="evenodd" d="M44.0654 25.9618L36.2854 20.4288C32.7267 21.8272 29.4907 23.9369 26.7754 26.6288C24.0719 29.3853 21.911 32.6256 20.4053 36.1808L25.9854 43.9538L12.4253 57.4538L0.365234 45.4538C0.365234 45.4538 1.89526 31.9818 16.9452 16.9658C31.7052 2.22784 45.5752 0.46582 45.5752 0.46582L57.6353 12.4658L44.0654 25.9618ZM44.5154 4.90179C39.9954 5.98376 29.7654 9.60181 19.6354 19.6488C9.59534 29.6078 5.7854 39.8168 4.67542 44.3398L12.5154 52.1348L21.2554 43.4148L16.2354 36.2988C17.8453 31.6573 20.5201 27.4574 24.0455 24.0358C27.5203 20.4647 31.7845 17.7587 36.4955 16.1358L43.5254 21.2927L52.1554 12.7007L44.5154 4.90179Z" fill="white"/>
</svg>
