<svg width="20" height="20" viewBox="0 0 20 20" fill="none" xmlns="http://www.w3.org/2000/svg">
<path d="M17.9892 17.8093L11.4945 8.37465L10.7607 7.30766L6.11505 0.558807L5.73035 -0.000244141H0.0224609L1.414 2.02269L7.59088 10.9971L8.32501 12.063L13.2879 19.2734L13.6729 19.8322H19.3809L17.9892 17.8093ZM14.3513 18.5411L9.19525 11.0498L8.46088 9.9835L2.47827 1.29086H5.05188L9.8902 8.32082L10.6245 9.38714L16.9249 18.5411H14.3513Z" fill="white"/>
<path d="M8.4613 9.9834L9.19537 11.0497L8.32513 12.0629L1.64661 19.8321H0L7.59106 10.997L8.4613 9.9834Z" fill="white"/>
<path d="M18.6938 -0.000244141L11.495 8.37488L10.6248 9.38713L9.89062 8.32082L10.7609 7.30766L15.6376 1.6319L17.0472 -0.000244141H18.6938Z" fill="white"/>
</svg>
