<svg width="23" height="16" viewBox="0 0 23 16" fill="none" xmlns="http://www.w3.org/2000/svg">
<path d="M9.14664 15.4912C4.94071 15.4139 3.50467 15.3442 2.62125 15.1624C2.02347 15.0414 1.50455 14.773 1.1243 14.3838C0.830111 14.0891 0.596102 13.6397 0.413973 13.016C0.258578 12.4965 0.197543 12.0641 0.111361 11.0082C-0.0210854 8.62522 -0.0523354 6.67692 0.111361 4.49974C0.247103 3.29774 0.312411 1.87049 1.21048 1.0378C1.63455 0.648361 2.12772 0.397331 2.68192 0.293755C3.54752 0.12957 7.23392 -0.000244141 11.0511 -0.000244141C14.859 -0.000244141 18.554 0.12957 19.4201 0.293755C20.1128 0.42379 20.7611 0.812996 21.1422 1.31506C21.9621 2.60413 21.9767 4.20687 22.0594 5.46067C22.0941 6.05816 22.0941 9.45045 22.0594 10.0477C21.9305 12.0293 21.8257 12.7303 21.5315 13.4572C21.3499 13.9163 21.195 14.1583 20.9258 14.4267C20.5041 14.8399 19.967 15.1144 19.3848 15.2142C15.7451 15.4881 12.6546 15.5475 9.14664 15.4912ZM14.7205 7.52906C12.6957 6.44692 10.7566 5.44348 8.77469 4.40476V10.619C10.8604 9.48528 13.0591 8.44656 14.7293 7.52047L14.7205 7.52906Z" fill="white"/>
</svg>
