<svg width="38" height="56" viewBox="0 0 38 56" fill="none" xmlns="http://www.w3.org/2000/svg">
<path fill-rule="evenodd" clip-rule="evenodd" d="M19.0006 4.58264C27.0906 4.58264 33.6607 11.4316 33.6607 19.8486C33.6633 22.519 32.9854 25.1461 31.6908 27.4817L19.0007 49.1756L6.31081 27.4756C5.01601 25.1412 4.33803 22.5151 4.34071 19.8456C4.34083 11.4286 10.9208 4.57959 19.0009 4.57959M19.0009 26.5626C23.0469 26.561 26.3258 23.2801 26.325 19.234C26.325 15.1895 23.0453 11.9093 18.9993 11.9086C14.9519 11.9086 11.6716 15.1882 11.6709 19.2343C11.6763 23.28 14.9551 26.5581 19.0009 26.5626ZM19.0009 0.915588C8.87941 0.915527 0.674819 9.11694 0.670913 19.2365C0.666884 22.454 1.5193 25.6145 3.14076 28.3936L19.0009 55.8716L34.8709 28.3936C38.1489 22.7256 38.151 15.7386 34.8764 10.0686C31.6016 4.39868 25.5486 0.908752 19.0009 0.915588ZM19.0009 22.8966C16.9796 22.8922 15.3441 21.2507 15.3471 19.2292C15.35 17.2078 16.9904 15.5712 19.0117 15.5726C21.0331 15.5741 22.671 17.2132 22.671 19.2346C22.6713 20.2073 22.2844 21.1401 21.5958 21.8272C20.9072 22.5142 19.9735 22.899 19.0009 22.8966Z" fill="white"/>
</svg>
